# xmcd
#
# Track frame offsets: 
#        150
#        19275
#        48491
#        91918
#        108869
#        130619
#
# Disc length: 2306 seconds
#
# Revision: 0
# Processed by: cddbd v1.5.2PL0 Copyright (c) Steve Scherf et al.
# Submitted via: ExactAudioCopy v0.95b4
#
DISCID=42090006
DTITLE=Stevie Ray Vaughan and Double Trouble - Live Alive - Disc 2
DYEAR=1985
DGENRE=Blues
TTITLE0=Look At Little Sister
TTITLE1=Texas Flood
TTITLE2=Voodoo Chile (Slight Return)
TTITLE3=Love Struck Baby
TTITLE4=Change It
TTITLE5=Life Without You
EXTD=
EXTT0=
EXTT1=
EXTT2=
EXTT3=
EXTT4=
EXTT5=
PLAYORDER=
